<mxfile host="app.diagrams.net" modified="2023-08-13T07:44:27.192Z" agent="Mozilla/5.0 (Windows NT 10.0; Win64; x64) AppleWebKit/537.36 (KHTML, like Gecko) Chrome/115.0.0.0 Safari/537.36" version="21.6.8" etag="AN97ur_SeXLuAlUvRGLm" type="github">
  <diagram name="第 1 页" id="2h5RmtvYKb4yGIkEBnnL">
    <mxGraphModel>
      <root>
        <mxCell id="0" />
        <mxCell id="1" parent="0" />
      </root>
    </mxGraphModel>
  </diagram>
</mxfile>
